<svg width="20" height="20" viewBox="0 0 20 20" fill="none" xmlns="http://www.w3.org/2000/svg">
<path d="M4.6 2.19996L3.3 3.93329C3.04251 4.27661 2.91377 4.44827 2.91676 4.59195C2.91936 4.71699 2.97799 4.83425 3.07646 4.91136C3.18962 4.99996 3.40419 4.99996 3.83333 4.99996H16.1667C16.5958 4.99996 16.8104 4.99996 16.9235 4.91136C17.022 4.83425 17.0806 4.71699 17.0832 4.59195C17.0862 4.44827 16.9575 4.27661 16.7 3.93329L15.4 2.19996M4.6 2.19996C4.74667 2.0044 4.82 1.90663 4.91294 1.83611C4.99525 1.77365 5.08846 1.72704 5.18782 1.69866C5.3 1.66663 5.42222 1.66663 5.66667 1.66663H14.3333C14.5778 1.66663 14.7 1.66663 14.8122 1.69866C14.9115 1.72704 15.0047 1.77365 15.0871 1.83611C15.18 1.90663 15.2533 2.0044 15.4 2.19996M4.6 2.19996L3.03333 4.28885C2.83545 4.55269 2.73651 4.68461 2.66625 4.82989C2.6039 4.95881 2.55843 5.09522 2.53096 5.23576C2.5 5.39414 2.5 5.55904 2.5 5.88885L2.5 15.6666C2.5 16.6 2.5 17.0668 2.68166 17.4233C2.84144 17.7369 3.09641 17.9918 3.41002 18.1516C3.76654 18.3333 4.23325 18.3333 5.16667 18.3333L14.8333 18.3333C15.7668 18.3333 16.2335 18.3333 16.59 18.1516C16.9036 17.9918 17.1586 17.7369 17.3183 17.4233C17.5 17.0668 17.5 16.6 17.5 15.6666V5.88885C17.5 5.55904 17.5 5.39414 17.469 5.23576C17.4416 5.09522 17.3961 4.95881 17.3338 4.8299C17.2635 4.68462 17.1646 4.55269 16.9667 4.28885L15.4 2.19996M13.3333 8.33329C13.3333 9.21735 12.9821 10.0652 12.357 10.6903C11.7319 11.3154 10.8841 11.6666 10 11.6666C9.11594 11.6666 8.2681 11.3154 7.64298 10.6903C7.01786 10.0652 6.66667 9.21735 6.66667 8.33329" stroke="white" stroke-width="1.5" stroke-linecap="round" stroke-linejoin="round"/>
</svg>
