<svg width="25" height="24" viewBox="0 0 25 24" fill="none" xmlns="http://www.w3.org/2000/svg">
<path d="M7.88309 21.6001C8.23509 21.6001 8.53909 21.4721 8.79509 21.2161C9.05109 20.9601 9.17909 20.6561 9.17909 20.3041C9.17909 19.9521 9.05109 19.6481 8.79509 19.3921C8.53909 19.1361 8.23509 19.0081 7.88309 19.0081C7.53109 19.0081 7.22309 19.1361 6.95909 19.3921C6.69509 19.6481 6.56309 19.9521 6.56309 20.3041C6.56309 20.6561 6.69509 20.9601 6.95909 21.2161C7.22309 21.4721 7.53109 21.6001 7.88309 21.6001ZM17.5791 21.6001C17.9311 21.6001 18.2351 21.4721 18.4911 21.2161C18.7471 20.9601 18.8751 20.6561 18.8751 20.3041C18.8751 19.9521 18.7471 19.6481 18.4911 19.3921C18.2351 19.1361 17.9311 19.0081 17.5791 19.0081C17.2271 19.0081 16.9231 19.1361 16.6671 19.3921C16.4111 19.6481 16.2831 19.9521 16.2831 20.3041C16.2831 20.6561 16.4111 20.9601 16.6671 21.2161C16.9231 21.4721 17.2271 21.6001 17.5791 21.6001ZM17.2671 17.2081H8.26709C7.81909 17.2081 7.35509 17.0401 6.87509 16.7041C6.44309 16.3681 6.17909 15.9681 6.08309 15.5041L3.56309 7.0081L2.67509 3.7921H1.16309C0.939094 3.7921 0.751094 3.7121 0.599094 3.5521C0.447094 3.3921 0.371094 3.2081 0.371094 3.0001C0.371094 2.7921 0.447094 2.6081 0.599094 2.4481C0.751094 2.2881 0.939094 2.2081 1.16309 2.2081H2.77109C3.07509 2.2081 3.37909 2.3041 3.68309 2.4961C3.90709 2.7041 4.06709 2.9681 4.16309 3.2881L4.88309 6.0001H21.1791C21.2911 6.0001 21.4071 6.0241 21.5271 6.0721C21.6471 6.1201 21.7311 6.1921 21.7791 6.2881C21.8431 6.4161 21.8831 6.5201 21.8991 6.6001C21.9311 6.7281 21.9231 6.8641 21.8751 7.0081L19.3791 15.6001C19.2991 16.0481 19.0271 16.4481 18.5631 16.8001C18.1951 17.0721 17.7631 17.2081 17.2671 17.2081ZM5.36309 7.4881L7.57109 15.1921C7.57109 15.3041 7.59509 15.3881 7.64309 15.4441C7.69109 15.5001 7.77109 15.5521 7.88309 15.6001C8.01109 15.7281 8.17109 15.7921 8.36309 15.7921H17.3631C17.4751 15.7921 17.6031 15.7521 17.7471 15.6721L17.8671 15.6001L17.9151 15.5521C18.0431 15.4401 18.1311 15.3201 18.1791 15.1921L20.3631 7.4881H5.36309Z" fill="white"/>
</svg>
