<svg width="70" height="24" viewBox="0 0 70 24" fill="none" xmlns="http://www.w3.org/2000/svg">
<g clip-path="url(#clip0_149_2123)">
<path d="M10.9673 12.4393L10.6823 12.6493L10.7873 13.0093L12.0473 16.8643L8.7473 14.4793L8.4473 14.2693L4.8473 16.8643L6.1073 13.0093L6.2123 12.6493L2.6123 10.0393H7.0823L7.1873 9.69426L8.4473 5.82426L9.7073 9.69426L9.8273 10.0393H14.2973L10.9673 12.4393Z" fill="#1A311F"/>
<path d="M24.9673 12.4393L24.6823 12.6493L24.7873 13.0093L26.0473 16.8643L22.7473 14.4793L22.4473 14.2693L18.8473 16.8643L20.1073 13.0093L20.2123 12.6493L16.6123 10.0393H21.0823L21.1873 9.69426L22.4473 5.82426L23.7073 9.69426L23.8273 10.0393H28.2973L24.9673 12.4393Z" fill="#1A311F"/>
<path d="M38.9673 12.4393L38.6823 12.6493L38.7873 13.0093L40.0473 16.8643L36.7473 14.4793L36.4473 14.2693L32.8473 16.8643L34.1073 13.0093L34.2123 12.6493L30.6123 10.0393H35.0823L35.1873 9.69426L36.4473 5.82426L37.7073 9.69426L37.8273 10.0393H42.2973L38.9673 12.4393Z" fill="#1A311F"/>
<path d="M52.9673 12.4393L52.6823 12.6493L52.7873 13.0093L54.0473 16.8643L50.7473 14.4793L50.4473 14.2693L46.8473 16.8643L48.1073 13.0093L48.2123 12.6493L44.6123 10.0393H49.0823L49.1873 9.69426L50.4473 5.82426L51.7073 9.69426L51.8273 10.0393H56.2973L52.9673 12.4393Z" fill="#1A311F"/>
<path d="M66.9673 12.4393L66.6823 12.6493L66.7873 13.0093L68.0473 16.8643L64.7473 14.4793L64.4473 14.2693L60.8473 16.8643L62.1073 13.0093L62.2123 12.6493L58.6123 10.0393H63.0823L63.1873 9.69426L64.4473 5.82426L65.7073 9.69426L65.8273 10.0393H70.2973L66.9673 12.4393Z" fill="#1A311F"/>
</g>
<defs>
<clipPath id="clip0_149_2123">
<rect width="70" height="22.39" fill="white" transform="translate(0 0.664062)"/>
</clipPath>
</defs>
</svg>
