<svg width="27" height="27" viewBox="0 0 27 27" fill="none" xmlns="http://www.w3.org/2000/svg">
<path d="M13.4997 2.16634H7.23301C4.9928 2.16634 3.87269 2.16634 3.01705 2.60232C2.2644 2.98581 1.65248 3.59773 1.26898 4.35038C0.833008 5.20603 0.833008 6.32613 0.833008 8.56634V19.7663C0.833008 22.0066 0.833008 23.1267 1.26898 23.9823C1.65248 24.735 2.2644 25.3469 3.01705 25.7304C3.87269 26.1663 4.9928 26.1663 7.23301 26.1663H19.4997C20.7396 26.1663 21.3596 26.1663 21.8683 26.03C23.2487 25.6602 24.3268 24.582 24.6967 23.2016C24.833 22.693 24.833 22.073 24.833 20.833M22.1663 8.83301V0.833008M18.1663 4.83301H26.1663M10.833 9.49967C10.833 10.9724 9.6391 12.1663 8.16634 12.1663C6.69358 12.1663 5.49967 10.9724 5.49967 9.49967C5.49967 8.02692 6.69358 6.83301 8.16634 6.83301C9.6391 6.83301 10.833 8.02692 10.833 9.49967ZM16.8197 14.0572L5.54121 24.3104C4.90682 24.8871 4.58963 25.1755 4.56158 25.4253C4.53726 25.6418 4.62028 25.8565 4.78392 26.0004C4.97271 26.1663 5.40138 26.1663 6.25872 26.1663H18.7743C20.6932 26.1663 21.6526 26.1663 22.4062 25.844C23.3523 25.4393 24.1059 24.6856 24.5106 23.7396C24.833 22.986 24.833 22.0265 24.833 20.1076C24.833 19.462 24.833 19.1392 24.7624 18.8385C24.6737 18.4607 24.5036 18.1068 24.264 17.8015C24.0733 17.5586 23.8213 17.3569 23.3171 16.9536L19.5874 13.9699C19.0829 13.5662 18.8306 13.3644 18.5527 13.2932C18.3078 13.2304 18.0502 13.2385 17.8097 13.3166C17.5369 13.4052 17.2979 13.6225 16.8197 14.0572Z" stroke="#BABABA" stroke-width="1.66667" stroke-linecap="round" stroke-linejoin="round"/>
</svg>
