<svg width="32" height="32" viewBox="0 0 32 32" fill="none" xmlns="http://www.w3.org/2000/svg">
<path d="M16 2.882C20.272 2.882 20.778 2.9 22.466 2.976C23.4803 2.98819 24.485 3.17492 25.436 3.528C26.1316 3.78496 26.7604 4.19508 27.276 4.728C27.8089 5.24358 28.219 5.87244 28.476 6.568C28.8291 7.51898 29.0158 8.52366 29.028 9.538C29.104 11.226 29.122 11.738 29.122 16.004C29.122 20.27 29.104 20.782 29.028 22.47C29.0158 23.4843 28.8291 24.489 28.476 25.44C28.2104 26.1302 27.8029 26.757 27.28 27.28C26.757 27.8029 26.1302 28.2104 25.44 28.476C24.489 28.8291 23.4843 29.0158 22.47 29.028C20.782 29.104 20.27 29.122 16.004 29.122C11.738 29.122 11.226 29.104 9.538 29.028C8.52366 29.0158 7.51898 28.8291 6.568 28.476C5.87244 28.219 5.24358 27.8089 4.728 27.276C4.19508 26.7604 3.78496 26.1316 3.528 25.436C3.17492 24.485 2.98819 23.4803 2.976 22.466C2.9 20.778 2.882 20.266 2.882 16C2.882 11.734 2.9 11.222 2.976 9.534C2.98819 8.51966 3.17492 7.51498 3.528 6.564C3.78496 5.86844 4.19508 5.23958 4.728 4.724C5.24358 4.19108 5.87244 3.78096 6.568 3.524C7.51898 3.17092 8.52366 2.98419 9.538 2.972C11.226 2.896 11.738 2.878 16.004 2.878M16 0C11.654 0 11.11 0.018 9.4 0.096C8.07392 0.122967 6.762 0.37453 5.52 0.84C4.45192 1.24112 3.48461 1.8712 2.686 2.686C1.8712 3.48461 1.24112 4.45192 0.84 5.52C0.37453 6.762 0.122967 8.07392 0.096 9.4C0.018 11.11 0 11.654 0 16C0 20.346 0.018 20.89 0.096 22.6C0.122967 23.9261 0.37453 25.238 0.84 26.48C1.24112 27.5481 1.8712 28.5154 2.686 29.314C3.48461 30.1288 4.45192 30.7589 5.52 31.16C6.76326 31.6259 8.07657 31.8775 9.404 31.904C11.11 31.982 11.654 32 16 32C20.346 32 20.89 31.982 22.6 31.904C23.9274 31.8775 25.2407 31.6259 26.484 31.16C27.5468 30.7486 28.5121 30.1198 29.3179 29.3139C30.1238 28.5081 30.7526 27.5428 31.164 26.48C31.6299 25.2367 31.8815 23.9234 31.908 22.596C31.986 20.89 32.004 20.346 32.004 15.996C32.004 11.646 31.986 11.106 31.908 9.396C31.8793 8.07103 31.6264 6.7605 31.16 5.52C30.7589 4.45192 30.1288 3.48461 29.314 2.686C28.5154 1.8712 27.5481 1.24112 26.48 0.84C25.238 0.37453 23.9261 0.122967 22.6 0.096C20.89 0.018 20.346 0 16 0Z" fill="#F7FCEF"/>
<path d="M15.9992 7.7832C14.3742 7.7832 12.7858 8.26506 11.4346 9.16785C10.0835 10.0706 9.03046 11.3538 8.40861 12.8551C7.78676 14.3564 7.62406 16.0083 7.94108 17.6021C8.25809 19.1958 9.04059 20.6598 10.1896 21.8088C11.3386 22.9578 12.8026 23.7403 14.3963 24.0573C15.9901 24.3744 17.6421 24.2116 19.1433 23.5898C20.6446 22.9679 21.9278 21.9149 22.8306 20.5638C23.7333 19.2127 24.2152 17.6242 24.2152 15.9992C24.2152 14.9203 24.0027 13.8519 23.5898 12.8551C23.1769 11.8583 22.5717 10.9525 21.8088 10.1896C21.0459 9.42669 20.1401 8.8215 19.1433 8.40861C18.1465 7.99572 17.0781 7.7832 15.9992 7.7832ZM15.9992 21.3332C14.9442 21.3332 13.913 21.0204 13.0358 20.4343C12.1586 19.8482 11.475 19.0151 11.0712 18.0404C10.6675 17.0658 10.5619 15.9933 10.7677 14.9586C10.9735 13.9239 11.4815 12.9735 12.2275 12.2275C12.9735 11.4815 13.9239 10.9735 14.9586 10.7677C15.9933 10.5619 17.0658 10.6675 18.0404 11.0712C19.0151 11.4749 19.8482 12.1586 20.4343 13.0358C21.0204 13.913 21.3332 14.9442 21.3332 15.9992C21.3332 17.4139 20.7712 18.7706 19.7709 19.7709C18.7706 20.7712 17.4139 21.3332 15.9992 21.3332Z" fill="#F7FCEF"/>
<path d="M24.5391 9.37906C25.5995 9.37906 26.4591 8.51945 26.4591 7.45906C26.4591 6.39868 25.5995 5.53906 24.5391 5.53906C23.4788 5.53906 22.6191 6.39868 22.6191 7.45906C22.6191 8.51945 23.4788 9.37906 24.5391 9.37906Z" fill="#F7FCEF"/>
</svg>
