<svg width="24" height="25" viewBox="0 0 24 25" fill="none" xmlns="http://www.w3.org/2000/svg">
<path fill-rule="evenodd" clip-rule="evenodd" d="M10.2857 10.3384H12.7617V11.5717C13.1183 10.8624 14.033 10.225 15.407 10.225C18.041 10.225 18.6663 11.637 18.6663 14.2277V19.0257H15.9997V14.8177C15.9997 13.3424 15.643 12.5104 14.735 12.5104C13.4757 12.5104 12.9523 13.407 12.9523 14.817V19.0257H10.2857V10.3384ZM5.71301 18.9124H8.37967V10.225H5.71301V18.9124ZM8.76167 7.39238C8.76177 7.6159 8.71745 7.83721 8.63127 8.04344C8.54509 8.24968 8.41878 8.43672 8.25967 8.59372C7.93727 8.91413 7.50088 9.09348 7.04634 9.09238C6.5926 9.09208 6.15722 8.91318 5.83434 8.59438C5.67582 8.43686 5.54993 8.2496 5.4639 8.04334C5.37788 7.83708 5.33339 7.61587 5.33301 7.39238C5.33301 6.94105 5.51301 6.50905 5.83501 6.19038C6.1576 5.87116 6.59317 5.69218 7.04701 5.69238C7.50167 5.69238 7.93767 5.87172 8.25967 6.19038C8.58101 6.50905 8.76167 6.94105 8.76167 7.39238Z" fill="#1D1D1D"/>
</svg>
