<svg width="24" height="25" viewBox="0 0 24 25" fill="none" xmlns="http://www.w3.org/2000/svg">
<path d="M12 5.80037C14.136 5.80037 14.389 5.80938 15.233 5.84738C15.7402 5.85347 16.2425 5.94683 16.718 6.12338C17.0658 6.25185 17.3802 6.45691 17.638 6.72338C17.9045 6.98117 18.1095 7.29559 18.238 7.64337C18.4145 8.11887 18.5079 8.6212 18.514 9.12838C18.552 9.97237 18.561 10.2284 18.561 12.3614C18.561 14.4944 18.552 14.7504 18.514 15.5944C18.5079 16.1015 18.4145 16.6039 18.238 17.0794C18.1052 17.4245 17.9015 17.7379 17.64 17.9994C17.3785 18.2608 17.0651 18.4646 16.72 18.5974C16.2445 18.7739 15.7422 18.8673 15.235 18.8734C14.391 18.9114 14.135 18.9204 12.002 18.9204C9.869 18.9204 9.613 18.9114 8.769 18.8734C8.26183 18.8673 7.75949 18.7739 7.284 18.5974C6.93622 18.4689 6.62179 18.2638 6.364 17.9974C6.09754 17.7396 5.89248 17.4252 5.764 17.0774C5.58746 16.6019 5.49409 16.0995 5.488 15.5924C5.45 14.7484 5.441 14.4924 5.441 12.3594C5.441 10.2264 5.45 9.97038 5.488 9.12638C5.49409 8.6192 5.58746 8.11687 5.764 7.64138C5.89248 7.29359 6.09754 6.97917 6.364 6.72137C6.62179 6.45491 6.93622 6.24985 7.284 6.12137C7.75949 5.94483 8.26183 5.85147 8.769 5.84537C9.613 5.80737 9.869 5.79838 12.002 5.79838M12 4.35938C9.827 4.35938 9.555 4.36837 8.7 4.40738C8.03696 4.42086 7.381 4.54664 6.76 4.77937C6.22596 4.97993 5.74231 5.29498 5.343 5.70238C4.9356 6.10168 4.62056 6.58534 4.42 7.11937C4.18727 7.74037 4.06148 8.39633 4.048 9.05937C4.009 9.91437 4 10.1864 4 12.3594C4 14.5324 4.009 14.8044 4.048 15.6594C4.06148 16.3224 4.18727 16.9784 4.42 17.5994C4.62056 18.1334 4.9356 18.6171 5.343 19.0164C5.74231 19.4238 6.22596 19.7388 6.76 19.9394C7.38163 20.1723 8.03828 20.2981 8.702 20.3114C9.555 20.3504 9.827 20.3594 12 20.3594C14.173 20.3594 14.445 20.3504 15.3 20.3114C15.9637 20.2981 16.6204 20.1723 17.242 19.9394C17.7734 19.7337 18.256 19.4193 18.659 19.0163C19.0619 18.6134 19.3763 18.1308 19.582 17.5994C19.815 16.9777 19.9407 16.3211 19.954 15.6574C19.993 14.8044 20.002 14.5324 20.002 12.3574C20.002 10.1824 19.993 9.91237 19.954 9.05737C19.9397 8.39489 19.8132 7.73962 19.58 7.11937C19.3794 6.58534 19.0644 6.10168 18.657 5.70238C18.2577 5.29498 17.774 4.97993 17.24 4.77937C16.619 4.54664 15.963 4.42086 15.3 4.40738C14.445 4.36837 14.173 4.35938 12 4.35938Z" fill="#7F7F7F"/>
<path d="M11.9996 8.25098C11.1871 8.25098 10.3929 8.49191 9.71732 8.9433C9.04176 9.39469 8.51523 10.0363 8.20431 10.7869C7.89338 11.5376 7.81203 12.3635 7.97054 13.1604C8.12905 13.9573 8.52029 14.6893 9.09481 15.2638C9.66932 15.8383 10.4013 16.2295 11.1982 16.388C11.995 16.5466 12.821 16.4652 13.5717 16.1543C14.3223 15.8433 14.9639 15.3168 15.4153 14.6413C15.8667 13.9657 16.1076 13.1715 16.1076 12.359C16.1076 11.8195 16.0013 11.2853 15.7949 10.7869C15.5885 10.2885 15.2859 9.83564 14.9044 9.45418C14.5229 9.07272 14.0701 8.77013 13.5717 8.56368C13.0733 8.35723 12.5391 8.25098 11.9996 8.25098ZM11.9996 15.026C11.4721 15.026 10.9565 14.8696 10.5179 14.5765C10.0793 14.2835 9.73748 13.8669 9.53562 13.3796C9.33376 12.8923 9.28094 12.356 9.38385 11.8387C9.48676 11.3213 9.74076 10.8461 10.1137 10.4731C10.4867 10.1001 10.9619 9.84613 11.4793 9.74322C11.9966 9.64032 12.5329 9.69313 13.0202 9.89499C13.5076 10.0968 13.9241 10.4387 14.2171 10.8773C14.5102 11.3159 14.6666 11.8315 14.6666 12.359C14.6666 13.0663 14.3856 13.7447 13.8855 14.2448C13.3853 14.745 12.7069 15.026 11.9996 15.026Z" fill="#7F7F7F"/>
<path d="M16.2696 9.04891C16.7998 9.04891 17.2296 8.6191 17.2296 8.08891C17.2296 7.55871 16.7998 7.12891 16.2696 7.12891C15.7394 7.12891 15.3096 7.55871 15.3096 8.08891C15.3096 8.6191 15.7394 9.04891 16.2696 9.04891Z" fill="#7F7F7F"/>
</svg>
