<svg width="40" height="41" viewBox="0 0 40 41" fill="none" xmlns="http://www.w3.org/2000/svg">
<path d="M15.0003 19.5257L18.3337 22.859L25.8337 15.359M33.3337 20.359C33.3337 28.5397 24.4104 34.4897 21.1636 36.3838C20.7947 36.5991 20.6102 36.7067 20.3498 36.7625C20.1477 36.8059 19.8529 36.8059 19.6509 36.7625C19.3905 36.7067 19.206 36.5991 18.837 36.3838C15.5903 34.4897 6.66699 28.5397 6.66699 20.359V12.3883C6.66699 11.0558 6.66699 10.3896 6.88493 9.81684C7.07745 9.3109 7.3903 8.85946 7.79642 8.50155C8.25615 8.0964 8.87999 7.86246 10.1277 7.39458L19.064 4.04345C19.4105 3.91352 19.5837 3.84855 19.762 3.8228C19.9201 3.79995 20.0806 3.79995 20.2387 3.8228C20.4169 3.84855 20.5902 3.91352 20.9367 4.04345L29.873 7.39458C31.1207 7.86246 31.7445 8.0964 32.2042 8.50155C32.6104 8.85946 32.9232 9.3109 33.1157 9.81684C33.3337 10.3896 33.3337 11.0558 33.3337 12.3883V20.359Z" stroke="#3B3B3B" stroke-opacity="0.7" stroke-width="1.5" stroke-linecap="round" stroke-linejoin="round"/>
</svg>
