<svg width="20" height="21" viewBox="0 0 20 21" fill="none" xmlns="http://www.w3.org/2000/svg">
<path d="M8.74928 11.6095L17.4993 2.85952M8.85559 11.8829L11.0457 17.5146C11.2386 18.0107 11.3351 18.2588 11.4741 18.3312C11.5946 18.394 11.7381 18.394 11.8587 18.3314C11.9978 18.2591 12.0946 18.0112 12.2881 17.5153L17.78 3.44218C17.9547 2.99453 18.0421 2.77071 17.9943 2.62769C17.9528 2.50348 17.8553 2.406 17.7311 2.36451C17.5881 2.31673 17.3643 2.40408 16.9166 2.57877L2.84349 8.07072C2.34759 8.26424 2.09965 8.361 2.02739 8.50009C1.96475 8.62066 1.96483 8.7642 2.02761 8.8847C2.10004 9.0237 2.3481 9.12017 2.84422 9.31311L8.47589 11.5032C8.5766 11.5424 8.62695 11.5619 8.66935 11.5922C8.70693 11.619 8.7398 11.6519 8.7666 11.6894C8.79685 11.7318 8.81643 11.7822 8.85559 11.8829Z" stroke="white" stroke-width="1.5" stroke-linecap="round" stroke-linejoin="round"/>
</svg>
