<svg width="40" height="41" viewBox="0 0 40 41" fill="none" xmlns="http://www.w3.org/2000/svg">
<path d="M35 30.3594V20.3594C35 12.0751 28.2843 5.35938 20 5.35938C11.7157 5.35938 5 12.0751 5 20.3594V30.3594M9.16667 35.3594C6.86548 35.3594 5 33.4939 5 31.1927V27.8594C5 25.5582 6.86548 23.6927 9.16667 23.6927C11.4679 23.6927 13.3333 25.5582 13.3333 27.8594V31.1927C13.3333 33.4939 11.4679 35.3594 9.16667 35.3594ZM30.8333 35.3594C28.5321 35.3594 26.6667 33.4939 26.6667 31.1927V27.8594C26.6667 25.5582 28.5321 23.6927 30.8333 23.6927C33.1345 23.6927 35 25.5582 35 27.8594V31.1927C35 33.4939 33.1345 35.3594 30.8333 35.3594Z" stroke="#3B3B3B" stroke-opacity="0.7" stroke-width="1.5" stroke-linecap="round" stroke-linejoin="round"/>
</svg>
