<svg width="40" height="41" viewBox="0 0 40 41" fill="none" xmlns="http://www.w3.org/2000/svg">
<path d="M23.333 12.0264H27.2284C27.6361 12.0264 27.8399 12.0264 28.0317 12.0724C28.2018 12.1132 28.3644 12.1806 28.5135 12.272C28.6817 12.375 28.8258 12.5192 29.1141 12.8074L35.8853 19.5787C36.1735 19.8669 36.3177 20.011 36.4207 20.1792C36.5121 20.3283 36.5795 20.4909 36.6203 20.661C36.6663 20.8528 36.6663 21.0566 36.6663 21.4643V26.193C36.6663 26.9696 36.6663 27.3579 36.5395 27.6642C36.3703 28.0726 36.0459 28.397 35.6375 28.5662C35.3312 28.693 34.9429 28.693 34.1663 28.693M25.833 28.693H23.333M23.333 28.693V12.3597C23.333 10.4929 23.333 9.55944 22.9697 8.8464C22.6501 8.21919 22.1402 7.70926 21.513 7.38968C20.7999 7.02637 19.8665 7.02637 17.9997 7.02637H8.66634C6.7995 7.02637 5.86608 7.02637 5.15304 7.38968C4.52583 7.70926 4.0159 8.21919 3.69632 8.8464C3.33301 9.55944 3.33301 10.4929 3.33301 12.3597V25.3597C3.33301 27.2006 4.82539 28.693 6.66634 28.693M23.333 28.693H16.6663M16.6663 28.693C16.6663 31.4545 14.4278 33.693 11.6663 33.693C8.90492 33.693 6.66634 31.4545 6.66634 28.693M16.6663 28.693C16.6663 25.9316 14.4278 23.693 11.6663 23.693C8.90492 23.693 6.66634 25.9316 6.66634 28.693M34.1663 29.5264C34.1663 31.8276 32.3009 33.693 29.9997 33.693C27.6985 33.693 25.833 31.8276 25.833 29.5264C25.833 27.2252 27.6985 25.3597 29.9997 25.3597C32.3009 25.3597 34.1663 27.2252 34.1663 29.5264Z" stroke="#3B3B3B" stroke-opacity="0.7" stroke-width="1.5" stroke-linecap="round" stroke-linejoin="round"/>
</svg>
