<svg width="24" height="25" viewBox="0 0 24 25" fill="none" xmlns="http://www.w3.org/2000/svg">
<path d="M19.8 9.15938C19.6 7.85938 19 6.95938 17.6 6.75938C15.4 6.35938 12 6.35938 12 6.35938C12 6.35938 8.6 6.35938 6.4 6.75938C5 6.95938 4.3 7.85938 4.2 9.15938C4 10.4594 4 12.3594 4 12.3594C4 12.3594 4 14.2594 4.2 15.5594C4.4 16.8594 5 17.7594 6.4 17.9594C8.6 18.3594 12 18.3594 12 18.3594C12 18.3594 15.4 18.3594 17.6 17.9594C19 17.6594 19.6 16.8594 19.8 15.5594C20 14.2594 20 12.3594 20 12.3594C20 12.3594 20 10.4594 19.8 9.15938ZM10 15.3594V9.35938L15 12.3594L10 15.3594Z" fill="#7F7F7F"/>
</svg>
